<svg xmlns="http://www.w3.org/2000/svg" viewBox="0 0 32 32" fill="none">
  <!-- Cauldron body -->
  <ellipse cx="16" cy="22" rx="12" ry="8" fill="#1a1a1a"/>
  <rect x="4" y="14" width="24" height="12" fill="#1a1a1a"/>
  <!-- Cauldron rim -->
  <ellipse cx="16" cy="14" rx="12" ry="3" fill="#333"/>
  <!-- Rim highlight -->
  <ellipse cx="16" cy="13.5" rx="10" ry="2" fill="#444"/>
  <!-- Left handle -->
  <path d="M4 16 C0 16 0 22 4 22" stroke="#1a1a1a" stroke-width="3" fill="none"/>
  <!-- Right handle -->
  <path d="M28 16 C32 16 32 22 28 22" stroke="#1a1a1a" stroke-width="3" fill="none"/>
  <!-- Legs -->
  <path d="M8 28 L6 31" stroke="#1a1a1a" stroke-width="2" stroke-linecap="round"/>
  <path d="M24 28 L26 31" stroke="#1a1a1a" stroke-width="2" stroke-linecap="round"/>
  <!-- Bubbles -->
  <circle cx="12" cy="24" r="1.5" fill="#333"/>
  <circle cx="20" cy="25" r="1" fill="#333"/>
  <!-- Steam/smoke -->
  <path d="M11 8 C11 6 13 6 13 8 C13 10 11 10 11 8" stroke="#666" stroke-width="1.5" fill="none"/>
  <path d="M16 6 C16 4 18 4 18 6 C18 8 16 8 16 6" stroke="#666" stroke-width="1.5" fill="none"/>
  <path d="M21 8 C21 6 23 6 23 8 C23 10 21 10 21 8" stroke="#666" stroke-width="1.5" fill="none"/>
</svg>